HIERARCHY
ROOT Hips
{
	OFFSET -3.958830 18.904000 13.208200
	CHANNELS 6 Xposition Yposition Zposition Zrotation Yrotation Xrotation 
	JOINT LHipJoint
	{
		OFFSET 0.000000 0.000000 0.000000
		CHANNELS 3 Zrotation Yrotation Xrotation
		JOINT LeftUpLeg
		{
			OFFSET 1.800000 -1.400000 0.085000
			CHANNELS 3 Zrotation Yrotation Xrotation
			JOINT LeftLeg
			{
				OFFSET 2.215000 -6.000000 0.000000
				CHANNELS 3 Zrotation Yrotation Xrotation
				JOINT LeftFoot
				{
					OFFSET 2.500000 -6.900000 0.000000
					CHANNELS 3 Zrotation Yrotation Xrotation
					JOINT LeftToeBase
					{
						OFFSET 0.200000 -0.500000 1.950000
						CHANNELS 3 Zrotation Yrotation Xrotation
						End Site
						{
							OFFSET 0.000000 0.000000 0.000000
						}
					}
				}
			}
		}
	}
	JOINT RHipJoint
	{
		OFFSET 0.000000 0.000000 0.000000
		CHANNELS 3 Zrotation Yrotation Xrotation
		JOINT RightUpLeg
		{
			OFFSET -1.800000 -1.400000 0.085000
			CHANNELS 3 Zrotation Yrotation Xrotation
			JOINT RightLeg
			{
				OFFSET -2.215000 -6.000000 0.000000
				CHANNELS 3 Zrotation Yrotation Xrotation
				JOINT RightFoot
				{
					OFFSET -2.500000 -6.900000 0.000000
					CHANNELS 3 Zrotation Yrotation Xrotation
					JOINT RightToeBase
					{
						OFFSET -0.200000 -0.500000 1.950000
						CHANNELS 3 Zrotation Yrotation Xrotation
						End Site
						{
							OFFSET 0.000000 0.000000 0.000000
						}
					}
				}
			}
		}
	}
	JOINT LowerBack
	{
		OFFSET 0.000000 0.000000 0.000000
		CHANNELS 3 Zrotation Yrotation Xrotation
		JOINT Spine
		{
			OFFSET -0.087000 1.940000 -0.288900
			CHANNELS 3 Zrotation Yrotation Xrotation
			JOINT Spine1
			{
				OFFSET 0.000000 1.950000 0.060000
				CHANNELS 3 Zrotation Yrotation Xrotation
				JOINT Neck
				{
					OFFSET 0.000000 0.000000 0.000000
					CHANNELS 3 Zrotation Yrotation Xrotation
					JOINT Neck1
					{
						OFFSET 0.000000 1.600000 0.340000
						CHANNELS 3 Zrotation Yrotation Xrotation
						JOINT Head
						{
							OFFSET 0.000000 1.667000 -0.240000
							CHANNELS 3 Zrotation Yrotation Xrotation
							End Site
							{
								OFFSET 0.000000 0.000000 0.000000
							}
						}
					}
				}
				JOINT LeftShoulder
				{
					OFFSET 0.000000 0.000000 0.000000
					CHANNELS 3 Zrotation Yrotation Xrotation
					JOINT LeftArm
					{
						OFFSET 2.700000 1.550000 -0.730000
						CHANNELS 3 Zrotation Yrotation Xrotation
						JOINT LeftForeArm
						{
							OFFSET 5.450000 0.000000 0.000000
							CHANNELS 3 Zrotation Yrotation Xrotation
							JOINT LeftHand
							{
								OFFSET 3.450000 0.000000 0.000000
								CHANNELS 3 Zrotation Yrotation Xrotation
								JOINT LeftHandIndex1
								{
									OFFSET 0.750000 0.000000 0.000000
									CHANNELS 3 Zrotation Yrotation Xrotation
									End Site
									{
										OFFSET 0.000000 0.000000 0.000000
									}
								}
							}
						}
					}
				}
				JOINT RightShoulder
				{
					OFFSET 0.000000 0.000000 0.000000
					CHANNELS 3 Zrotation Yrotation Xrotation
					JOINT RightArm
					{
						OFFSET -2.700000 1.550000 -0.730000
						CHANNELS 3 Zrotation Yrotation Xrotation
						JOINT RightForeArm
						{
							OFFSET -5.450000 0.000000 0.000000
							CHANNELS 3 Zrotation Yrotation Xrotation
							JOINT RightHand
							{
								OFFSET -3.450000 0.000000 0.000000
								CHANNELS 3 Zrotation Yrotation Xrotation
								JOINT RightHandIndex1
								{
									OFFSET -0.750000 0.000000 0.000000
									CHANNELS 3 Zrotation Yrotation Xrotation
									End Site
									{
										OFFSET 0.000000 0.000000 0.000000
									}
								}
							}
						}
					}
				}
			}
		}
	}
}
MOTION
Frames: 13
Frame Time: 0.016667
-1.159390 17.093280 -5.243070 -2.823826 31.439290 -15.057232 -15.049414 13.613737 2.763542 5.273717 -0.084579 -16.196435 13.264239 1.513043 4.958043 -0.462404 2.159647 3.836404 0.450200 0.268160 0.121340 18.057888 -12.339085 2.585239 -8.436355 1.041157 -1.325373 3.507214 -7.971757 33.917924 -0.739456 -5.802045 2.569033 0.105410 -0.086340 -0.210420 -4.799617 0.063654 -7.998060 12.126316 -1.310795 27.764600 -15.914693 7.414573 27.703587 9.341969 -7.952931 -25.392593 -19.700231 -2.051393 45.353255 22.798490 -16.476090 -25.068500 -13.478172 -34.832727 8.475691 -47.541481 -29.116340 -12.848142 18.959969 -32.821813 -10.571164 -2.771074 3.028258 0.668130 -0.425070 0.083990 0.165390 -1.838406 50.322028 22.980865 39.011048 12.227742 -17.370631 -37.948889 -0.670545 -6.209822 2.819508 -1.897478 -0.125460 0.318060 -0.114270 -0.083190 
-1.217160 17.080770 -5.269040 -4.093565 29.593970 -15.190479 -14.969594 13.714094 2.672572 6.320160 0.457554 -17.611577 13.983625 1.536251 6.025195 -0.429068 2.200148 3.820442 0.436990 0.247420 0.124370 18.128751 -12.245764 2.726353 -6.614817 1.951104 -2.329654 3.633382 -7.699989 34.669596 -0.738591 -5.759939 2.582097 0.084930 -0.081460 -0.207640 -4.927288 -0.133873 -8.032755 15.052334 -3.349763 27.214563 -17.770291 6.033758 25.043816 10.484763 -9.590709 -26.217613 -23.818540 0.947914 46.578951 21.323140 -15.745390 -23.423980 -17.224511 -32.062604 7.553557 -49.235920 -24.011794 -11.013257 16.480754 -27.875170 -8.054157 -2.815856 3.058747 0.653580 -0.422870 0.081460 0.164130 -0.295726 48.699000 22.893357 32.729102 16.905580 -26.429264 -50.430434 9.904036 -15.049477 2.873753 -2.131463 -0.118520 0.309930 -0.118600 -0.074510 
-1.285620 17.074000 -5.282030 -4.599223 27.141019 -14.842089 -14.833372 13.600050 2.488324 6.769566 1.031099 -18.484015 15.088674 1.500862 7.109884 -0.440282 2.285361 3.790247 0.442760 0.279160 0.083600 18.299340 -12.290150 2.813926 -5.364175 2.905223 -3.362066 3.326586 -7.194254 35.265497 -0.712773 -5.761950 2.575981 0.126160 -0.020100 -0.195770 -5.233174 0.177660 -8.007387 17.828457 -4.507166 25.240165 -20.004510 5.114265 25.523662 11.582219 -10.927841 -26.303470 -26.304930 2.500464 45.391878 20.170950 -15.397860 -22.428570 -17.961593 -30.371302 6.865857 -49.972344 -21.101890 -8.949730 14.595768 -22.283378 -5.896810 -2.910742 3.109795 0.593130 -0.376200 0.042420 0.182780 -1.562065 47.817845 23.076239 23.212038 23.770050 -32.189846 -54.661428 15.359069 -19.431333 3.042870 -2.265801 -0.115790 0.333220 -0.101150 -0.038590 
-1.364430 17.068060 -5.295740 -5.470180 24.239764 -14.885791 -14.666765 13.428224 2.229628 7.747031 1.759373 -19.108598 16.054907 1.499765 8.686808 -0.473905 2.427417 3.737070 0.471660 0.305280 0.088490 18.509641 -12.403516 2.928503 -3.588107 3.792762 -4.212805 2.572933 -6.550573 35.938835 -0.715208 -5.752267 2.562853 0.166780 0.012870 -0.175850 -5.600278 0.791918 -7.974879 21.474775 -5.098452 23.695273 -21.797716 4.534826 25.537554 12.359234 -12.182421 -25.525774 -28.222134 3.377949 44.656706 19.092370 -15.259310 -22.901790 -18.564494 -29.725966 7.046334 -51.126205 -18.709363 -7.076919 12.780866 -17.782139 -4.330187 -2.961218 3.139296 0.572820 -0.352890 0.021470 0.193370 -2.373495 47.638268 21.934989 16.287396 28.210672 -38.989701 -57.892793 23.872248 -23.788003 3.433794 -2.290202 -0.119680 0.353540 -0.092960 -0.027380 
-1.447410 17.054650 -5.298810 -6.252655 21.530055 -14.709290 -14.506712 13.216178 1.960408 8.417549 2.402129 -20.127287 17.254129 1.429738 11.228398 -0.471006 2.594500 3.655636 0.508950 0.345580 0.092640 18.719285 -12.549803 3.053338 -1.810273 4.743519 -5.222490 1.812393 -5.996708 37.311113 -0.738665 -5.844726 2.500410 0.208000 0.030300 -0.144860 -5.961717 1.586983 -7.973463 24.888696 -4.950553 22.082981 -23.094746 4.536644 25.225697 12.712914 -13.076729 -24.225138 -28.636368 3.673690 44.060477 18.751280 -15.272830 -22.887040 -19.583257 -29.752190 7.754494 -51.505498 -16.702994 -5.332734 10.573175 -14.001687 -3.037900 -2.991466 3.200298 0.532360 -0.333060 0.005960 0.207780 -2.007017 47.831539 19.525918 12.317406 30.485578 -44.365404 -59.939992 33.947127 -27.872734 4.163301 -2.384433 -0.100080 0.337100 -0.099680 -0.008150 
-1.534770 17.041680 -5.296830 -6.401326 19.507880 -14.787718 -14.427235 13.134081 1.765302 8.485561 2.916508 -20.779178 18.278053 1.367995 14.046445 -0.466589 2.825230 3.564721 0.517940 0.362790 0.061530 18.827449 -12.647094 3.134935 -0.823296 5.319414 -5.486364 1.374494 -5.671666 38.242166 -0.755160 -5.955254 2.458428 0.236480 0.069670 -0.134810 -6.118423 2.038100 -7.977114 26.499489 -4.414880 21.334470 -23.357248 4.939923 25.103407 12.945992 -13.679533 -23.268500 -28.762557 3.869133 43.881156 18.548080 -15.498680 -22.332580 -19.626589 -30.180001 8.503818 -52.732984 -15.857548 -4.177537 9.829969 -11.455114 -2.440529 -3.021223 3.236727 0.505040 -0.304800 -0.022800 0.230280 -2.345318 48.578580 17.183606 9.581065 30.945746 -49.574787 -62.327769 45.218936 -32.843597 5.350916 -2.854281 -0.105320 0.346180 -0.089710 0.008540 
-1.616810 17.051430 -5.291980 -6.648079 17.079791 -15.450884 -14.359056 13.112164 1.539731 8.808643 3.589190 -20.647349 19.203551 1.361913 17.433396 -0.415291 3.150146 3.429396 0.567670 0.415970 0.086750 18.917808 -12.773003 3.197690 0.160467 5.313291 -4.593945 0.698168 -5.212442 37.898239 -0.785890 -5.914288 2.466685 0.265130 0.054230 -0.126680 -6.215693 2.410354 -7.924906 28.457862 -4.276113 21.243341 -24.557853 5.751018 25.541839 13.977447 -14.266247 -23.239578 -29.968347 4.503116 44.772902 18.878260 -15.912790 -23.482340 -20.074598 -30.660941 9.109718 -52.460580 -15.480068 -3.320529 8.945885 -9.374018 -1.953383 -2.985488 3.265484 0.508880 -0.326000 -0.002320 0.249110 -3.748948 50.241166 15.002968 7.224174 30.128831 -56.627678 -65.782786 58.505475 -39.117698 7.895564 -4.737175 -0.084800 0.350790 -0.114970 0.020400 
-1.699200 17.062700 -5.288920 -6.323782 16.080909 -16.190291 -14.320823 12.842234 1.282039 7.847148 3.847121 -19.876486 20.740781 1.068422 20.735277 -0.356499 3.502377 3.293077 0.582760 0.451940 0.061480 19.010286 -13.070321 3.176084 -0.253277 5.210987 -3.823694 1.219177 -5.457095 37.665024 -0.811036 -6.043918 2.422513 0.290840 0.063520 -0.128730 -6.306223 3.448672 -7.829750 29.872244 -3.262686 21.755294 -24.557400 6.760286 25.053959 14.785947 -15.578393 -23.051576 -30.757541 4.815456 46.495688 19.729040 -16.674620 -24.089660 -20.817554 -33.204166 11.494209 -52.240154 -14.843150 -2.748123 8.305492 -8.520304 -1.729466 -2.956954 3.309476 0.483840 -0.328210 -0.010230 0.259030 -4.035040 55.334224 9.677048 10.294033 21.369051 -73.854942 -91.717802 87.970551 -46.314230 13.902649 -8.801724 -0.069470 0.355290 -0.113350 0.046150 
-1.779090 17.076160 -5.301890 -5.911995 15.445980 -17.574899 -14.262043 12.897222 1.270550 6.600946 3.844196 -18.981135 22.129007 0.694044 24.194506 -0.289960 3.963861 3.116226 0.604260 0.491390 0.059630 19.041231 -13.164749 3.217901 -1.108635 5.142353 -2.628762 2.387893 -6.042883 37.647242 -0.854177 -6.208897 2.359850 0.320010 0.062470 -0.131190 -6.431591 3.516111 -7.987508 30.068062 -3.200329 22.119441 -24.893938 7.032129 25.265593 15.425355 -15.480179 -20.057202 -30.236029 5.040891 46.622074 20.326790 -16.880380 -24.967380 -21.411028 -35.167780 13.934138 -51.061638 -13.836640 -2.198983 7.018829 -7.797081 -1.490527 -2.958721 3.260103 0.488370 -0.338450 0.000810 0.262620 -4.583773 56.923603 3.084914 8.486128 20.333748 -63.987793 -115.409333 89.436945 -55.503357 6.072573 -0.321496 -0.066010 0.373760 -0.111920 0.056240 
-1.847720 17.072420 -5.311230 -5.262345 15.467070 -18.701651 -14.298933 12.915358 1.330810 4.842485 3.438021 -18.112851 23.202809 0.224025 27.999404 -0.204543 4.543268 2.917824 0.600380 0.479120 0.068590 18.999357 -13.154045 3.181404 -2.525373 5.070220 -1.746911 4.064770 -6.976488 37.741433 -0.878703 -6.439483 2.287000 0.325460 0.077480 -0.128610 -6.321447 3.479457 -7.939815 29.382832 -3.199011 23.044992 -24.790956 7.011163 25.364457 16.053349 -15.443634 -18.733281 -29.321112 4.865055 46.037883 19.628870 -16.950560 -24.886170 -21.112317 -35.641395 14.739411 -50.866098 -13.753306 -2.164174 6.534263 -8.214473 -1.546161 -3.001308 3.210886 0.486480 -0.322340 -0.012780 0.254120 -6.143991 57.527270 0.308034 6.063276 18.651636 -47.950078 -121.040785 78.672359 -65.071574 3.769737 1.759719 -0.080530 0.386890 -0.100260 0.048450 
-1.916450 17.072170 -5.304650 -4.469493 15.284198 -19.981522 -14.342278 12.947498 1.398075 3.469673 3.095791 -16.392278 23.220178 0.072619 32.311057 -0.085998 5.190023 2.702315 0.595180 0.479180 0.064790 18.946891 -13.129196 3.151912 -3.812426 5.109122 -0.849360 5.357542 -7.799666 38.366559 -0.917123 -6.707189 2.215560 0.332730 0.089670 -0.143420 -6.170585 3.414901 -7.880025 28.297916 -3.054276 24.279776 -24.599034 7.138497 25.689474 16.749299 -15.350591 -17.978685 -28.456152 4.877138 45.406663 19.352370 -16.883130 -24.921460 -20.273797 -35.346069 14.791686 -50.898640 -13.940847 -2.545312 6.532590 -9.296073 -1.733170 -3.025958 3.168165 0.482870 -0.312680 -0.025800 0.253770 -8.257111 57.174272 -1.005019 2.763209 17.186903 -33.573969 -124.179767 67.033600 -76.213275 3.177458 2.005324 -0.095420 0.406810 -0.095770 0.044840 
-1.980300 17.065870 -5.288830 -3.673023 14.612720 -21.115921 -14.396062 13.022350 1.488598 2.542420 2.887694 -14.255487 22.347371 0.362698 36.617285 0.059912 5.882848 2.481534 0.569090 0.431220 0.062920 18.875159 -13.076598 3.125143 -4.850504 5.078350 -0.029100 6.145649 -8.381843 38.811683 -0.933534 -6.906871 2.157576 0.308710 0.112700 -0.136870 -5.955443 3.210082 -7.804588 26.771469 -2.992142 25.543577 -24.420120 7.219372 25.987565 17.359798 -15.214313 -17.799153 -27.971294 5.152149 44.531734 19.072180 -16.856400 -23.929280 -18.879391 -33.818068 13.890766 -51.704022 -14.098166 -3.599372 6.838484 -11.702284 -2.192130 -3.057900 3.152283 0.476610 -0.293460 -0.046760 0.245990 -10.791514 55.418046 -0.282878 -2.049333 16.783501 -22.393810 -126.095302 56.474322 -86.151766 3.089472 1.070785 -0.108860 0.401880 -0.082670 0.038520 
-2.032150 17.060700 -5.273980 -3.122000 14.418611 -22.164651 -14.473360 13.089011 1.635649 1.683072 2.491338 -12.080130 20.864127 0.883580 40.215815 0.171848 6.482737 2.297676 0.543580 0.397310 0.033140 18.784548 -12.987210 3.070012 -5.659923 4.675718 0.897219 6.504368 -8.808906 38.783145 -0.936442 -7.038858 2.125136 0.302680 0.154490 -0.128890 -5.713143 2.884345 -7.720358 25.053141 -3.439742 26.604440 -24.501004 6.707117 26.341304 18.047732 -15.185049 -17.680732 -27.679646 5.877395 42.764126 18.597290 -16.362430 -22.745310 -17.226373 -31.110742 12.196621 -52.496014 -14.255650 -4.889840 6.394415 -14.705801 -2.689139 -3.098362 3.146764 0.467640 -0.260640 -0.076410 0.252560 -13.707985 52.226200 1.646904 -7.109744 16.940076 -15.758770 -129.399751 48.730418 -95.786140 2.956262 -0.138600 -0.131220 0.408100 -0.059680 0.037510 
